<svg xmlns="http://www.w3.org/2000/svg" xmlns:xlink="http://www.w3.org/1999/xlink" viewBox="0 0 300 116.4"><defs><style>.cls-1{fill:#181818;}.cls-2{font-size:68.52px;fill:#fac2c3;font-family:AlexBrush-Regular, Alex Brush;}.cls-3{fill:#f79b7f;}.cls-4{fill:url(#New_Gradient_Swatch_2);}.cls-5{fill:url(#New_Gradient_Swatch_2-2);}.cls-6{fill:#f1b28a;}.cls-7{fill:url(#linear-gradient);}</style><linearGradient id="New_Gradient_Swatch_2" x1="65.72" y1="32.07" x2="105.67" y2="32.07" gradientUnits="userSpaceOnUse"><stop offset="0" stop-color="#bb8085"/><stop offset="0.11" stop-color="#dd9b9c"/><stop offset="0.2" stop-color="#f4aeac"/><stop offset="0.3" stop-color="#f6c7c6"/><stop offset="0.39" stop-color="#f8dada"/><stop offset="0.71" stop-color="#b27880"/><stop offset="0.84" stop-color="#d4a0a7"/><stop offset="1" stop-color="#facbd2"/></linearGradient><linearGradient id="New_Gradient_Swatch_2-2" x1="20.2" y1="81.43" x2="54.35" y2="81.43" xlink:href="#New_Gradient_Swatch_2"/><linearGradient id="linear-gradient" x1="75.23" y1="85.03" x2="50.98" y2="40.22" gradientUnits="userSpaceOnUse"><stop offset="0.2" stop-color="#f79b7f"/><stop offset="0.34" stop-color="#f79f86"/><stop offset="0.53" stop-color="#f8aa99"/><stop offset="0.76" stop-color="#f9bbb7"/><stop offset="0.83" stop-color="#fac2c3"/></linearGradient></defs><g id="Layer_2" data-name="Layer 2"><g id="Layer_1-2" data-name="Layer 1"><rect class="cls-1" width="300" height="116.4"/><text class="cls-2" transform="translate(115.5 86.28) rotate(-10.54)">Events</text><path class="cls-3" d="M168.85,31.12a5.65,5.65,0,0,1,3.09.7,2.9,2.9,0,0,1,1.35,2.59c0,2.49-2.12,3.54-4,3.56a3.8,3.8,0,0,1-.52,0l-1-.25V40c0,1.44.12,1.51,1.62,1.65v.64H164v-.64c1.29-.16,1.46-.21,1.46-1.65V33.44c0-1.44-.17-1.6-1.46-1.69v-.63Zm-1,5.83a2.13,2.13,0,0,0,.92.17c.79,0,2.08-.46,2.08-2.73,0-1.93-1.05-2.57-2.17-2.57A1,1,0,0,0,168,32a.65.65,0,0,0-.16.53Z"/><path class="cls-3" d="M179,42.31v-.64c1.08-.16,1.08-.35.84-1.09-.17-.51-.45-1.29-.71-2H175.8c-.19.53-.43,1.18-.6,1.72-.37,1.08.05,1.22,1.41,1.34v.64h-4.25v-.64c1.08-.14,1.36-.29,1.94-1.74l3.58-8.9.83-.15c1.1,3,2.27,6.06,3.39,8.93.63,1.6.79,1.72,1.91,1.86v.64Zm-1.52-8.23c-.5,1.24-1,2.39-1.41,3.65h2.74Z"/><path class="cls-3" d="M195.45,42.41c-.1,0-.31,0-.52,0-2.18-.1-2.82-.57-3.33-1.29a32.5,32.5,0,0,1-1.78-3,1,1,0,0,0-1-.57h-.34V40c0,1.39.17,1.51,1.46,1.67v.64h-5.26v-.64c1.3-.14,1.46-.28,1.46-1.67V33.41c0-1.36-.17-1.55-1.46-1.66v-.63h5a5.24,5.24,0,0,1,3.11.65,2.63,2.63,0,0,1,1.15,2.29,2.94,2.94,0,0,1-2.15,2.79c.26.52.93,1.63,1.45,2.43a13.94,13.94,0,0,0,1.31,1.79,2.08,2.08,0,0,0,1.08.75Zm-6.56-5.63a2.53,2.53,0,0,0,1.69-.45,2.43,2.43,0,0,0,.81-2c0-1.83-1-2.48-2-2.48a1.21,1.21,0,0,0-.8.17c-.12.11-.15.31-.15.66v4.11Z"/><path class="cls-3" d="M202.61,42.31v-.64c1.08-.16,1.08-.35.84-1.09-.17-.51-.45-1.29-.7-2h-3.36c-.19.53-.43,1.18-.6,1.72-.36,1.08.05,1.22,1.41,1.34v.64H196v-.64c1.08-.14,1.36-.29,1.94-1.74l3.58-8.9.83-.15c1.1,3,2.27,6.06,3.39,8.93.64,1.6.79,1.72,1.91,1.86v.64Zm-1.52-8.23c-.5,1.24-1,2.39-1.41,3.65h2.74Z"/><path class="cls-3" d="M217.65,42.31v-.64c1.31-.14,1.39-.26,1.39-1.81V33.15c-1.24,3-2.6,6.23-3.84,9.16h-.57c-1.12-2.81-2.34-6-3.58-9-.22,5.4-.22,6.47-.22,7.09,0,.93.36,1.17,1.65,1.29v.64H208.2v-.64c1-.09,1.43-.28,1.57-1.31.07-.52.13-1.5.53-7.18,0-.82-.07-1.29-1.55-1.43v-.63h3.72l3.32,7.59,3.34-7.59h3.63v.63c-1.38.14-1.53.28-1.5,1.66l.14,6.45c0,1.55.09,1.62,1.48,1.81v.64Z"/><path class="cls-4" d="M77.83,15.11h0l0,.05h0c.42.44,1,.71,1.44,1.12s.81,1,1.26,1.52a17.18,17.18,0,0,0,4.57,3.88h0l0,0h0c1.49.67,3.11,1,4.62,1.59a3.33,3.33,0,0,1,1.07.67h0c.36.37.58.84.91,1.24a15.07,15.07,0,0,1,1.34,1.18,23.56,23.56,0,0,1,1.57,2.71c-4.29-4.12-9.46-7.55-15.28-9h0a10.17,10.17,0,0,1-1.67-.7l-.48-.25c-2.63-1.35-6.66-2-9.15-.11h0c-.19.13-.39.24-.58.36h0c-.26.14-.48.33-.73.49h0a.41.41,0,0,0-.11.07h0c-.09.06-.19.08-.28.13h0l-.1,0h0c-.22.12-1.14.14-.3.27h.16a5.07,5.07,0,0,0,2.07-.62,10.2,10.2,0,0,1,3.3-.3c1.68.22,3.24,1.13,5,.84h.07a17.65,17.65,0,0,1,8,2.2,23.13,23.13,0,0,1-6.22-.08,12.67,12.67,0,0,0-6.66.29c-.13.06-1.2.34-.77.45,3.67.16,5.53,3.18,9.73,1.7h0a12.81,12.81,0,0,0,2.65-1.24,11.89,11.89,0,0,1,1.28-.53h0l.22-.07h0c1-.42,3.28,1.45,4.25,2a40.63,40.63,0,0,1,9,8.5c-2.56-2.72-5.73-2.73-8.77-4.34h0l0,0h0l0,0h0A10.88,10.88,0,0,0,87,28.37a8.52,8.52,0,0,0-2.4-.77c-1.35-.14-2.69.27-4,0h0c-1.74-.28-.86,0,0,.49,1.07.71,2.08,1.53,3.2,2.18h0c2,1,3.93,2.44,6.24,1.65,1.28-.45,2.57-1,4-.54h0l.09,0h0l.84.39,0,0,.07,0h0l0,0h0a15.93,15.93,0,0,1,3.8,2.94l0,0a13.34,13.34,0,0,1,2.42,3.59h0l0,0,0,0a45.18,45.18,0,0,1,3.6,9.31c.22.44.18,1.07.51,1.41.19.13.34-.12.3-.3v0a1.55,1.55,0,0,0,0-.21v0c-.15-.58-.31-1.15-.45-1.72v0c-.34-1.36-1.14-2.63-1.08-4.06v0c0-2.34,1.21-4.42,1.51-6.71a7.74,7.74,0,0,0-1.2-4.42c-.79-2.33-2.49-4.1-4.12-5.87a18.28,18.28,0,0,1-4-6.28,6.36,6.36,0,0,1-.35-1.18s0,0,0,0h0s-.06-.07-.08,0h0v0h0a14.48,14.48,0,0,0,.7,6.63v0a43.86,43.86,0,0,0,2.11,4.3l0,0c1.45,2.94,3.47,5.54,5,8.42a24.08,24.08,0,0,1,.17,5.1v.11a35.22,35.22,0,0,0-4-7.74h0v0a32.21,32.21,0,0,0-3.38-4.41h0a12.47,12.47,0,0,1-1.23-1.39,15,15,0,0,1-1.63-4.08,12.32,12.32,0,0,0-2.08-4.08c-1.72-2.54-4.8-3.36-7.57-4.18-2-.71-4-1.42-6-2,0,0-.08,0-.11,0S77.8,15.08,77.83,15.11ZM67.28,19.9c.31-.21.65-.37,1-.57h0l.31-.2h0c1.83-1.32,4.1-1,6.18-.62a12.38,12.38,0,0,1,2.86,1.14c-.43-.1-.84-.28-1.27-.41a10.45,10.45,0,0,0-3.74-.69h0l-.37,0h0a11.52,11.52,0,0,0-2.55.35h0l-.12,0h0l-.47.15h0c-.2.06-.4.15-.6.22h0A5.26,5.26,0,0,0,67.28,19.9ZM74.9,20c-1.81-.49-3.64-1.21-5.54-.74a10.06,10.06,0,0,1,3-.39,6.6,6.6,0,0,1,1.47.08h0c1.39.25,2.7.8,4.06,1.14H77.8C76.84,20,75.86,20.16,74.9,20Zm8.25,3.3,0,0,0,0h0Zm.18-.12c-2.39,1.59-5.63,2.34-8.21.74-.69-.32-1.43-.51-2.14-.78.22,0,.43,0,.65,0h.27a7.6,7.6,0,0,1,2.89.18h0c2.17.79,4.41.4,6.58-.12ZM76.88,23c-1.51-.55-3.12.1-4.65-.1a17.93,17.93,0,0,1,4-.56,23.79,23.79,0,0,0,7.38.44C81.38,23.29,79.1,23.72,76.88,23Zm5.93,4.92h0a7,7,0,0,1,4,.68,11.48,11.48,0,0,1,2.45.86l0,0h0l.58.31h0l-.94-.17c-1.44-.24-2.89-.43-4.32-.76h0A19.68,19.68,0,0,1,81.57,28,10.31,10.31,0,0,0,82.81,27.94Zm-1,.67h0Zm6.64,3.18a5,5,0,0,1-2.27-.74,24.14,24.14,0,0,1-4.33-2.41h0a9,9,0,0,1-.86-.56c3.66,1.51,7.67,1.6,11.42,2.75h-.16C91,31,89.83,31.85,88.46,31.79ZM103,35.43l0,0c-.21-.31-.39-.62-.61-.91h0c-.32-.49-.74-.89-1-1.38l0,0c-.09-.12-.16-.24-.24-.35h0c-.06-.09-.13-.18-.19-.28l0,0-.18-.26v0l-.09-.14v0a34.68,34.68,0,0,1-4.41-9.43h0v0h0c-.1-.74-.18-1.49-.26-2.24,0,.07,0,.14,0,.21a13.56,13.56,0,0,0,1.16,3.07h0a.64.64,0,0,1,.08.14h0l.19.35v0c.52,1,1.25,2,1.85,3l0,0,0,0h0l0,0v0l0,0h0v0h0v0l0,0c1.37,2.65,2.4,5.45,3.65,8.16Zm-.8-2.56a57.86,57.86,0,0,0-2.61-5.79c-.72-1.14-1.55-2.22-2.17-3.43v0l0,0h0A16.66,16.66,0,0,1,96,19.82l0,.1a19,19,0,0,0,4.11,6.24l0,0c.59.61,1.08,1.3,1.67,1.91l0,0a17.73,17.73,0,0,1,3.41,6.52c.46,1.91-.4,3.77-1.06,5.51C104.41,37.44,103.21,35.16,102.17,32.87ZM86,21.64c-2.64-1-4.52-3.24-6.25-5.36,3.46,2.15,7,4.27,10.27,6.65C88.69,22.48,87.33,22.11,86,21.64Zm6.23,3.6a3.9,3.9,0,0,1-1.11-1.31c.44.48.86,1,1.31,1.42ZM81.61,16.6l.11,0c2.87,1.1,6.14,1.51,8.5,3.64a12.51,12.51,0,0,1,2.72,4.26c0,.06,0,.13,0,.2h0c.06.34.13.68.19,1l-.06-.09c-1.87-2.58-4.57-4.28-7.27-5.89-2-1.21-4-2.63-6.06-3.74C80.4,16.2,81,16.45,81.61,16.6Z"/><path class="cls-5" d="M20.22,73.51s0,.07,0,.11c.59,2,1.29,4,2,6,.82,2.78,1.64,5.86,4.18,7.58a12.18,12.18,0,0,0,4.07,2.08,14.89,14.89,0,0,1,4.08,1.63A13.54,13.54,0,0,1,36,92.17l0,0a31.77,31.77,0,0,0,4.42,3.39h0a35,35,0,0,0,7.74,4H48a24.76,24.76,0,0,1-5.1-.17c-2.88-1.54-5.48-3.56-8.42-5h0a42.87,42.87,0,0,0-4.31-2.1h0a14.36,14.36,0,0,0-6.63-.7h0s0,.09,0,.07h0a6.14,6.14,0,0,1,1.18.35,18.13,18.13,0,0,1,6.28,4c1.78,1.63,3.55,3.33,5.88,4.12a7.74,7.74,0,0,0,4.42,1.2c2.28-.3,4.36-1.52,6.71-1.51h0c1.42-.07,2.7.73,4,1.08h0l1.73.46h0a.69.69,0,0,0,.2,0h0c.18,0,.42-.11.3-.31-.34-.33-1-.28-1.41-.5A46,46,0,0,1,43.59,97h0l0,0h0A13.18,13.18,0,0,1,40,94.57h0a16.13,16.13,0,0,1-2.94-3.79h0l0,0h0l0-.06,0,0c-.14-.28-.27-.56-.39-.85h0l0,0v0l0-.08h0v0c-.48-1.37.1-2.67.54-4,.79-2.31-.64-4.26-1.65-6.23h0v0h0v0c-.64-1.12-1.46-2.13-2.18-3.2-.52-.9-.76-1.78-.48,0h0c.24,1.33-.16,2.68,0,4a8.88,8.88,0,0,0,.78,2.4A10.07,10.07,0,0,0,34.36,85v0l0,0h0l0,0h0c1.6,3,1.61,6.22,4.34,8.78a40.22,40.22,0,0,1-8.5-9c-.57-1-2.45-3.2-2-4.24v0l0-.05v0l.08-.23s0,0,0,0a11.89,11.89,0,0,1,.53-1.28A12.54,12.54,0,0,0,30,76.54h0v0h0c1.49-4.2-1.53-6.07-1.69-9.73-.11-.43-.4.64-.46.77a12.88,12.88,0,0,0-.29,6.66,22.73,22.73,0,0,1,.09,6.22,17.7,17.7,0,0,1-2.21-8.05h0v-.08c.29-1.75-.63-3.3-.85-5a10.48,10.48,0,0,1,.3-3.3A5.07,5.07,0,0,0,25.56,62h0a.37.37,0,0,0,0-.11h0v-.05h0c-.13-.84-.16.08-.27.3h0l0,.09h0a1.34,1.34,0,0,1-.13.27v0a.41.41,0,0,1-.07.11h0c-.16.24-.35.47-.5.73l0,0-.36.58h0c-1.89,2.49-1.23,6.52.11,9.15.09.16.17.32.25.48a9.37,9.37,0,0,1,.7,1.67v0c1.45,5.82,4.89,11,9,15.27a22.67,22.67,0,0,1-2.71-1.56A14.88,14.88,0,0,1,30.4,87.5c-.4-.33-.88-.55-1.25-.91h0a3.41,3.41,0,0,1-.66-1.07c-.61-1.51-.93-3.13-1.6-4.62h0l0,0h0A17.38,17.38,0,0,0,23,76.29c-.49-.44-1.06-.78-1.53-1.25s-.68-1-1.12-1.44h0l0,0h0S20.26,73.48,20.22,73.51Zm4.34-9.36h0v0l-.22.6h0v0h0l-.16.46v0c0,.05,0,.09,0,.13h0v0h0a11,11,0,0,0-.36,2.55v0h0l0,.37h0a10.51,10.51,0,0,0,.7,3.74c.12.42.31.83.4,1.27a11.92,11.92,0,0,1-1.13-2.86c-.34-2.08-.7-4.36.61-6.18h0l.19-.3h0c.2-.31.36-.66.58-1A5,5,0,0,0,24.56,64.15Zm.74,9.37v.1c-.35-1.37-.89-2.67-1.15-4.06v0a6,6,0,0,1-.07-1.47,10.35,10.35,0,0,1,.38-3c-.47,1.9.25,3.73.75,5.54C25.37,71.59,25.15,72.56,25.3,73.52Zm3.2,5.38h0l0,0,0,0Zm-.12.19c.51-2.17.9-4.41.12-6.58h0a7.54,7.54,0,0,1-.18-2.88h0c0-.11,0-.21,0-.31v0c0-.21,0-.43,0-.64.26.71.46,1.45.78,2.14,1.6,2.57.84,5.82-.74,8.21C28.39,79.07,28.38,79.08,28.38,79.09Zm-.37.23a23.56,23.56,0,0,0-.45-7.39,17.86,17.86,0,0,1,.57-4c.19,1.53-.45,3.14.09,4.65C28.92,74.82,28.49,77.11,28,79.32Zm5.21-2a20.5,20.5,0,0,1,.86,3.09v0c.33,1.43.51,2.88.76,4.32.05.31.11.62.16.94v0s0,0,0,0L34.68,85v0a10.81,10.81,0,0,1-.86-2.45,6.88,6.88,0,0,1-.68-4v0h0A8.47,8.47,0,0,0,33.22,77.3Zm.6.24h0ZM36.05,88a.86.86,0,0,0,0,.16c-1.15-3.75-1.25-7.76-2.75-11.42a9.64,9.64,0,0,1,.55.86h0a23.54,23.54,0,0,1,2.41,4.33A4.88,4.88,0,0,1,37,84.19C37.06,85.56,36.24,86.69,36.05,88Zm4.63,10.73c-2.71-1.24-5.51-2.27-8.17-3.64l0,0,0,0h0l0,0h0l0,0h0c-1-.59-1.91-1.32-2.95-1.84h0L29.19,93h0L29.05,93h0A13.56,13.56,0,0,0,26,91.79l-.21-.05c.75.08,1.49.15,2.23.26h0a34.87,34.87,0,0,1,9.43,4.42v0a.71.71,0,0,0,.14.1l0,0,.26.19,0,0,.27.19h0l.36.23h0c.49.3.9.73,1.38,1h0c.29.21.6.4.9.6h0Zm4.57,1.14c-1.75.65-3.61,1.51-5.51,1.06a17.75,17.75,0,0,1-6.52-3.42l0,0c-.61-.59-1.31-1.08-1.92-1.68l0,0a18.94,18.94,0,0,0-6.23-4.11l-.1,0a16.13,16.13,0,0,1,3.82,1.37h0c1.21.61,2.28,1.44,3.43,2.17a58.73,58.73,0,0,0,5.78,2.61C40.36,98.94,42.64,100.14,45.25,99.86ZM28.13,85.75c-2.38-3.31-4.49-6.81-6.65-10.27,2.13,1.73,4.36,3.61,5.36,6.25C27.31,83.06,27.69,84.42,28.13,85.75Zm2.43,2.4-1.42-1.3a4,4,0,0,1,1.3,1.1ZM21.21,75.52c1.12,2.1,2.54,4,3.74,6.06,1.61,2.69,3.32,5.4,5.9,7.27l.09.06-1-.19h0l-.2,0A12.51,12.51,0,0,1,25.46,86c-2.13-2.36-2.53-5.63-3.63-8.51l0-.1C21.66,76.72,21.4,76.13,21.21,75.52Z"/><polygon class="cls-6" points="105.93 101.68 56.23 101.68 56.23 100.82 105.07 100.82 105.07 50.93 105.93 50.93 105.93 101.68"/><polygon class="cls-6" points="25.4 59.51 24.54 59.51 24.54 20.29 63.86 20.29 63.86 21.15 25.4 21.15 25.4 59.51"/><path class="cls-7" d="M80.53,37.93a12.64,12.64,0,0,0-5.18-2.42,45.53,45.53,0,0,0-8.8-.61H43.76v.87H44a10.56,10.56,0,0,1,3.93.89,6.16,6.16,0,0,1,2.49,2.25,7.81,7.81,0,0,1,1,2.85,34.9,34.9,0,0,1,.28,5V74.62a28.36,28.36,0,0,1-.42,5.74,6,6,0,0,1-1.62,3.06A6.39,6.39,0,0,1,47.3,85a12.1,12.1,0,0,1-3.54.63v.86H67.91v-.86A12,12,0,0,1,64.38,85a6.3,6.3,0,0,1-4-4.65A27.31,27.31,0,0,1,60,74.62V36.07h3.18c2.06,0,3.39,0,4,.08a10,10,0,0,1,5.48,2.27,10.58,10.58,0,0,1,3.08,4.21,14.82,14.82,0,0,1,1.07,5.69,11.49,11.49,0,0,1-3.7,9,8.5,8.5,0,0,1-3.61,2,20,20,0,0,1-4.27.52l-.33,0V57.55l0-1.71c0-.69,0-1.38,0-2.08,1.11-.09,2.17-.13,3.18-.13a9.17,9.17,0,0,1,3.22.49l1.34-1.4c-.7-.06-1.4-.09-2.08-.08h-2l-4.26.07c-.34,0-.84,0-1.5,0l-.83,0,.66,1.1c0,.63.07,2.74.07,3.74v6.09c0,1.59-.08,3.29-.15,3.75L62,68.43l2.16-.08s2.32,0,4.24.08l1.74,0c.83,0,1.66,0,2.51-.12l-1-1.3a5.48,5.48,0,0,1-1.15.28,15.3,15.3,0,0,1-2.09.12c-1.24,0-2.4,0-3.48-.13,0-.45,0-1.16,0-2.14V61.05h4.87c2,0,3.24,0,3.87-.1a16.17,16.17,0,0,0,6.88-2q5.43-3.21,5.44-10.13A13,13,0,0,0,80.53,37.93Z"/></g></g></svg>